<svg width="1157" height="131" viewBox="0 0 1157 131" fill="none" xmlns="http://www.w3.org/2000/svg">
<path d="M1056.09 128.16V2.16016H1080.39L1137.63 106.38H1138.35V2.16016H1156.35V128.16H1132.05L1074.81 24.1202H1074.09V128.16H1056.09Z" fill="#1E1E1E"/>
<path d="M979.286 130.32C966.926 130.32 956.066 127.62 946.706 122.22C937.346 116.7 930.026 109.08 924.746 99.36C919.466 89.52 916.826 78.12 916.826 65.16C916.826 52.32 919.466 41.04 924.746 31.32C930.026 21.48 937.346 13.8 946.706 8.28C956.066 2.76 966.926 0 979.286 0C991.766 0 1002.69 2.76 1012.05 8.28C1021.41 13.8 1028.67 21.48 1033.83 31.32C1039.11 41.04 1041.75 52.32 1041.75 65.16C1041.75 78.12 1039.11 89.52 1033.83 99.36C1028.67 109.08 1021.41 116.7 1012.05 122.22C1002.69 127.62 991.766 130.32 979.286 130.32ZM979.286 114.3C988.046 114.3 995.726 112.32 1002.33 108.36C1009.05 104.4 1014.21 98.76 1017.81 91.44C1021.53 84.12 1023.39 75.36 1023.39 65.16C1023.39 54.96 1021.53 46.2 1017.81 38.88C1014.21 31.56 1009.05 25.98 1002.33 22.14C995.726 18.18 988.046 16.2 979.286 16.2C970.526 16.2 962.846 18.18 956.246 22.14C949.646 25.98 944.486 31.56 940.766 38.88C937.046 46.2 935.186 54.96 935.186 65.16C935.186 75.36 937.046 84.12 940.766 91.44C944.486 98.76 949.646 104.4 956.246 108.36C962.846 112.32 970.526 114.3 979.286 114.3Z" fill="#1E1E1E"/>
<path d="M884.349 128.16V2.16016H902.349V128.16H884.349Z" fill="#1E1E1E"/>
<path d="M820.018 128.16V16.9202H782.578V2.16016H875.278V16.9202H837.838V128.16H820.018Z" fill="#1E1E1E"/>
<path d="M678.34 128.16L720.46 2.16016H748.9L790.48 128.16H771.4L735.04 14.2202H734.32L697.24 128.16H678.34ZM699.22 89.8202L704.26 75.4202H763.48L768.52 89.8202H699.22Z" fill="#1E1E1E"/>
<path d="M623.429 128.16L581.309 2.16016H600.389L637.649 115.74H638.369L674.729 2.16016H693.449L651.869 128.16H623.429Z" fill="#1E1E1E"/>
<path d="M516.454 130.32C504.094 130.32 493.234 127.62 483.874 122.22C474.514 116.7 467.194 109.08 461.914 99.36C456.634 89.52 453.994 78.12 453.994 65.16C453.994 52.32 456.634 41.04 461.914 31.32C467.194 21.48 474.514 13.8 483.874 8.28C493.234 2.76 504.094 0 516.454 0C528.934 0 539.854 2.76 549.214 8.28C558.574 13.8 565.834 21.48 570.994 31.32C576.274 41.04 578.914 52.32 578.914 65.16C578.914 78.12 576.274 89.52 570.994 99.36C565.834 109.08 558.574 116.7 549.214 122.22C539.854 127.62 528.934 130.32 516.454 130.32ZM516.454 114.3C525.214 114.3 532.894 112.32 539.494 108.36C546.214 104.4 551.374 98.76 554.974 91.44C558.694 84.12 560.554 75.36 560.554 65.16C560.554 54.96 558.694 46.2 554.974 38.88C551.374 31.56 546.214 25.98 539.494 22.14C532.894 18.18 525.214 16.2 516.454 16.2C507.694 16.2 500.014 18.18 493.414 22.14C486.814 25.98 481.654 31.56 477.934 38.88C474.214 46.2 472.354 54.96 472.354 65.16C472.354 75.36 474.214 84.12 477.934 91.44C481.654 98.76 486.814 104.4 493.414 108.36C500.014 112.32 507.694 114.3 516.454 114.3Z" fill="#1E1E1E"/>
<path d="M339.251 128.16V2.16016H363.551L420.791 106.38H421.511V2.16016H439.511V128.16H415.211L357.971 24.1202H357.251V128.16H339.251Z" fill="#1E1E1E"/>
<path d="M222.708 128.16V2.16016H247.008L304.248 106.38H304.968V2.16016H322.968V128.16H298.668L241.428 24.1202H240.708V128.16H222.708Z" fill="#1E1E1E"/>
<path d="M188.431 128.16V2.16016H206.431V128.16H188.431Z" fill="#1E1E1E"/>
<path d="M118.118 128.16V2.16016H136.118V128.16H118.118Z" fill="#1E1E1E"/>
<path d="M0 128.16L42.12 2.16016H70.56L112.14 128.16H93.06L56.7 14.2202H55.98L18.9 128.16H0ZM20.88 89.8202L25.92 75.4202H85.14L90.18 89.8202H20.88Z" fill="#1E1E1E"/>
</svg>
