<svg width="50" height="51" viewBox="0 0 50 51" fill="none" xmlns="http://www.w3.org/2000/svg">
<g clip-path="url(#clip0_14228_2129)">
<path fill-rule="evenodd" clip-rule="evenodd" d="M15.2712 0.49707C11.3305 0.49707 7.55118 2.06251 4.76467 4.84902C1.97816 7.63553 0.41272 11.4148 0.41272 15.3556V35.1669C0.41272 39.1076 1.97816 42.8869 4.76467 45.6734C7.55118 48.4599 11.3305 50.0254 15.2712 50.0254H35.0825C39.0233 50.0254 42.8026 48.4599 45.5891 45.6734C48.3756 42.8869 49.941 39.1076 49.941 35.1669V15.3556C49.941 11.4148 48.3756 7.63553 45.5891 4.84902C42.8026 2.06251 39.0233 0.49707 35.0825 0.49707H15.2712ZM3.71461 15.3556C3.71461 8.97191 8.88756 3.79896 15.2712 3.79896H35.0825C41.4662 3.79896 46.6391 8.97191 46.6391 15.3556V35.1669C46.6391 41.5505 41.4662 46.7235 35.0825 46.7235H15.2712C12.2062 46.7235 9.26674 45.5059 7.09946 43.3386C4.93217 41.1714 3.71461 38.2319 3.71461 35.1669V15.3556ZM41.6863 12.604C41.6863 13.3338 41.3964 14.0336 40.8804 14.5496C40.3644 15.0657 39.6645 15.3556 38.9347 15.3556C38.205 15.3556 37.5051 15.0657 36.9891 14.5496C36.4731 14.0336 36.1832 13.3338 36.1832 12.604C36.1832 11.8742 36.4731 11.1744 36.9891 10.6583C37.5051 10.1423 38.205 9.85242 38.9347 9.85242C39.6645 9.85242 40.3644 10.1423 40.8804 10.6583C41.3964 11.1744 41.6863 11.8742 41.6863 12.604ZM25.1769 15.9059C23.9483 15.9059 22.7318 16.1479 21.5967 16.618C20.4617 17.0882 19.4304 17.7773 18.5616 18.646C17.6929 19.5147 17.0038 20.546 16.5337 21.6811C16.0635 22.8161 15.8215 24.0327 15.8215 25.2612C15.8215 26.4898 16.0635 27.7063 16.5337 28.8414C17.0038 29.9764 17.6929 31.0077 18.5616 31.8765C19.4304 32.7452 20.4617 33.4343 21.5967 33.9044C22.7318 34.3746 23.9483 34.6166 25.1769 34.6166C27.6581 34.6166 30.0376 33.6309 31.7921 31.8765C33.5466 30.122 34.5322 27.7424 34.5322 25.2612C34.5322 22.78 33.5466 20.4005 31.7921 18.646C30.0376 16.8915 27.6581 15.9059 25.1769 15.9059ZM12.5196 25.2612C12.5196 21.9043 13.8532 18.6849 16.2269 16.3112C18.6005 13.9375 21.82 12.604 25.1769 12.604C28.5338 12.604 31.7532 13.9375 34.1269 16.3112C36.5006 18.6849 37.8341 21.9043 37.8341 25.2612C37.8341 28.6181 36.5006 31.8375 34.1269 34.2112C31.7532 36.5849 28.5338 37.9185 25.1769 37.9185C21.82 37.9185 18.6005 36.5849 16.2269 34.2112C13.8532 31.8375 12.5196 28.6181 12.5196 25.2612Z" fill="#B2B2B2"/>
</g>
<defs>
<clipPath id="clip0_14228_2129">
<rect width="50" height="50.9434" fill="white"/>
</clipPath>
</defs>
</svg>
