<svg width="55" height="55" viewBox="0 0 55 55" fill="none" xmlns="http://www.w3.org/2000/svg">
<path fill-rule="evenodd" clip-rule="evenodd" d="M8.02177 13.7503C9.54124 13.7503 10.9985 13.1467 12.0729 12.0723C13.1473 10.9979 13.7509 9.54063 13.7509 8.02116C13.7509 6.50169 13.1473 5.04445 12.0729 3.97003C10.9985 2.8956 9.54124 2.29199 8.02177 2.29199C6.5023 2.29199 5.04506 2.8956 3.97064 3.97003C2.89621 5.04445 2.2926 6.50169 2.2926 8.02116C2.2926 9.54063 2.89621 10.9979 3.97064 12.0723C5.04506 13.1467 6.5023 13.7503 8.02177 13.7503ZM13.7509 52.7087V18.3337H2.2926V52.7087H13.7509ZM18.3343 18.3337H28.6468V22.7932C30.2876 20.6368 33.7939 18.3337 40.1051 18.3337C50.028 18.3337 52.7093 28.2337 52.7093 34.3753V52.7087H41.2509V34.3753C41.2509 32.0837 40.1051 27.5003 35.5218 27.5003C32.2676 27.5003 29.9759 29.8103 28.6468 31.9714V52.7087H18.3343V18.3337Z" fill="#B2B2B2"/>
</svg>
