<svg width="617" height="131" viewBox="0 0 617 131" fill="none" xmlns="http://www.w3.org/2000/svg">
<path d="M560.923 128.16V16.9202H523.483V2.16016H616.183V16.9202H578.743V128.16H560.923Z" fill="#1E1E1E"/>
<path d="M496.526 128.16V2.16016H514.526V128.16H496.526ZM416.426 128.16V2.16016H434.426V128.16H416.426ZM431.366 71.2802V56.5202H500.486V71.2802H431.366Z" fill="#1E1E1E"/>
<path d="M338.799 130.32C327.279 130.32 317.199 127.62 308.559 122.22C300.039 116.82 293.379 109.26 288.579 99.54C283.899 89.82 281.559 78.48 281.559 65.52C281.559 52.68 284.079 41.34 289.119 31.5C294.159 21.66 301.299 13.98 310.539 8.46C319.779 2.82 330.759 0 343.479 0C357.879 0 369.819 3.48 379.299 10.44C388.899 17.28 395.079 26.82 397.839 39.06H377.319C375.519 32.1 371.739 26.64 365.979 22.68C360.219 18.6 352.659 16.56 343.299 16.56C334.419 16.56 326.679 18.54 320.079 22.5C313.599 26.46 308.619 32.1 305.139 39.42C301.659 46.74 299.919 55.44 299.919 65.52C299.919 75.72 301.659 84.48 305.139 91.8C308.619 99.12 313.539 104.7 319.899 108.54C326.259 112.38 333.579 114.3 341.859 114.3C354.579 114.3 364.179 110.64 370.659 103.32C377.139 96 380.859 86.22 381.819 73.98H347.079V60.12H400.179V128.16H383.979L382.179 103.86H381.459C378.339 109.5 374.679 114.36 370.479 118.44C366.279 122.4 361.539 125.4 356.259 127.44C350.979 129.36 345.159 130.32 338.799 130.32Z" fill="#1E1E1E"/>
<path d="M249.082 128.16V2.16016H267.082V128.16H249.082Z" fill="#1E1E1E"/>
<path d="M193.48 130.32C184.24 130.32 176.14 128.7 169.18 125.46C162.34 122.1 157 117.42 153.16 111.42C149.32 105.42 147.34 98.4 147.22 90.36H166.12C166.24 94.92 167.26 99.12 169.18 102.96C171.22 106.68 174.28 109.68 178.36 111.96C182.44 114.12 187.48 115.2 193.48 115.2C198.4 115.2 202.72 114.48 206.44 113.04C210.16 111.6 213.04 109.5 215.08 106.74C217.24 103.86 218.32 100.26 218.32 95.94C218.32 91.62 217.3 88.02 215.26 85.14C213.34 82.26 210.64 79.86 207.16 77.94C203.68 76.02 199.84 74.34 195.64 72.9C191.44 71.46 187.12 69.96 182.68 68.4C172 64.68 164.02 60.12 158.74 54.72C153.58 49.2 151 42.24 151 33.84C151 27.24 152.68 21.42 156.04 16.38C159.4 11.22 164.14 7.2 170.26 4.32C176.38 1.44 183.52 0 191.68 0C199.84 0 206.98 1.5 213.1 4.49999C219.22 7.49999 224.02 11.64 227.5 16.92C230.98 22.2 232.72 28.38 232.72 35.46H213.82C213.7 31.38 212.74 27.84 210.94 24.84C209.14 21.72 206.56 19.26 203.2 17.46C199.84 15.66 195.64 14.76 190.6 14.76C186.64 14.76 183.04 15.36 179.8 16.56C176.56 17.76 173.98 19.68 172.06 22.32C170.26 24.84 169.36 28.2 169.36 32.4C169.36 35.88 170.08 38.82 171.52 41.22C173.08 43.62 175.3 45.72 178.18 47.52C181.18 49.2 184.78 50.88 188.98 52.56C193.18 54.12 197.98 55.92 203.38 57.96C209.62 60.12 215.2 62.7 220.12 65.7C225.16 68.58 229.12 72.3 232 76.86C235 81.3 236.5 87.06 236.5 94.14C236.5 100.38 234.88 106.26 231.64 111.78C228.4 117.3 223.6 121.8 217.24 125.28C210.88 128.64 202.96 130.32 193.48 130.32Z" fill="#1E1E1E"/>
<path d="M34.2773 128.16V2.16016H58.5773L115.817 106.38H116.537V2.16016H134.537V128.16H110.237L52.9973 24.1202H52.2773V128.16H34.2773Z" fill="#1E1E1E"/>
<path d="M0 128.16V2.16016H18V128.16H0Z" fill="#1E1E1E"/>
</svg>
