<svg width="88" height="40" viewBox="0 0 88 40" fill="none" xmlns="http://www.w3.org/2000/svg">
<g clip-path="url(#clip0_14228_1949)">
<path d="M65.4357 7.16778C64.9523 6.31659 64.2995 5.64993 63.4774 5.16651C62.6553 4.6831 61.7175 4.44171 60.6648 4.44171C59.612 4.44171 58.6667 4.6831 57.83 5.16651C57.6455 5.27331 57.4705 5.39084 57.303 5.51596L28.2307 24.7861C27.394 25.2695 26.7343 25.94 26.2509 26.7981C25.7675 27.6562 25.5261 28.6553 25.5261 29.7946C25.5261 30.934 25.7675 31.8901 26.2509 32.7482C26.7337 33.6063 27.3902 34.2774 28.2199 34.7602C29.049 35.2436 29.9905 35.485 31.0433 35.485C32.0961 35.485 33.0376 35.2436 33.8667 34.7602C34.0386 34.6604 34.2009 34.5498 34.3583 34.4335L63.145 15.3125C63.2537 15.2588 63.3611 15.2019 63.466 15.1406C64.2957 14.6578 64.9517 13.9867 65.4351 13.1286C65.9179 12.2705 66.1599 11.2784 66.1599 10.1536C66.1599 9.02876 65.9179 8.01896 65.4351 7.16778H65.4357Z" fill="#FF7000"/>
<path d="M5.75103 15.5937C5.00095 15.5937 4.33744 15.4749 3.7605 15.2367C3.18357 14.9984 2.73618 14.6022 2.41896 14.0468C2.10174 13.492 1.94313 12.7305 1.94313 11.7643V7.13429H0.0606613V4.68943H1.94313L2.26793 1.70364H4.86445V4.68943H7.74218V7.13429H4.86445V11.8079C4.86445 12.2983 4.97251 12.6376 5.18926 12.8247C5.40537 13.0123 5.77314 13.1059 6.29257 13.1059H7.69921V15.5943H5.75166L5.75103 15.5937Z" fill="white"/>
<path d="M9.1267 15.5937V0.0151672H12.0474V6.29005C12.4076 5.72765 12.891 5.2771 13.497 4.93776C14.103 4.59905 14.7949 4.42907 15.5741 4.42907C16.4828 4.42907 17.2474 4.62054 17.8673 5.00221C18.4872 5.38452 18.9561 5.93997 19.2739 6.66793C19.5912 7.39652 19.7498 8.28752 19.7498 9.34029V15.5931H16.8506V9.62149C16.8506 8.74187 16.6698 8.06762 16.3096 7.59874C15.9488 7.12986 15.3864 6.89542 14.6218 6.89542C14.1314 6.89542 13.6916 7.01106 13.3017 7.24171C12.9125 7.47236 12.6054 7.80411 12.3823 8.23697C12.1586 8.66983 12.0468 9.20379 12.0468 9.83823V15.5937H9.12607H9.1267Z" fill="white"/>
<path d="M26.6521 15.8534C25.5558 15.8534 24.5858 15.6152 23.7422 15.1393C22.8986 14.6635 22.242 14.0031 21.7731 13.1595C21.3043 12.3159 21.0698 11.346 21.0698 10.2496C21.0698 9.15323 21.3043 8.10741 21.7731 7.24232C22.242 6.37661 22.8948 5.69161 23.7314 5.18672C24.5681 4.68182 25.5412 4.42969 26.6521 4.42969C27.763 4.42969 28.6787 4.66792 29.4863 5.14375C30.2938 5.61958 30.9213 6.25781 31.3687 7.05844C31.8155 7.85907 32.0392 8.7785 32.0392 9.81736C32.0392 9.96144 32.0354 10.1238 32.0284 10.3039C32.0209 10.4847 32.0101 10.6686 31.9962 10.8556H23.1684V9.0597H29.097C29.054 8.38166 28.8051 7.83379 28.3507 7.41547C27.8964 6.99714 27.3371 6.78798 26.6736 6.78798C26.1687 6.78798 25.7106 6.90678 25.2998 7.14501C24.8885 7.38324 24.5605 7.7289 24.3153 8.18387C24.0701 8.63822 23.9475 9.21136 23.9475 9.90394V10.5314C23.9475 11.1229 24.0594 11.6385 24.2831 12.0783C24.5068 12.5188 24.8202 12.8613 25.224 13.1058C25.6278 13.351 26.0967 13.4736 26.6306 13.4736C27.1646 13.4736 27.6221 13.3618 27.9615 13.1381C28.3002 12.9144 28.5637 12.6155 28.7513 12.2401H31.7156C31.528 12.9182 31.1924 13.5349 30.7096 14.0904C30.2262 14.6458 29.6417 15.0787 28.9573 15.3883C28.2724 15.6986 27.504 15.8534 26.6528 15.8534H26.6521Z" fill="white"/>
<path d="M41.8193 15.8534C40.8095 15.8534 39.94 15.6948 39.212 15.3776C38.4834 15.0603 37.9103 14.6237 37.4919 14.0682C37.0736 13.5134 36.8354 12.8746 36.7779 12.1536H39.6986C39.7561 12.4133 39.8717 12.6585 40.0449 12.8891C40.218 13.1197 40.4487 13.3005 40.7374 13.43C41.0256 13.5596 41.3719 13.6246 41.7763 13.6246C42.1807 13.6246 42.4866 13.5703 42.7393 13.4622C42.9915 13.3542 43.1791 13.2063 43.3017 13.0186C43.4243 12.8316 43.4856 12.6363 43.4856 12.4341C43.4856 12.1314 43.3953 11.9008 43.2152 11.7415C43.0344 11.5829 42.7785 11.4458 42.4468 11.3302C42.115 11.2152 41.7112 11.1141 41.2354 11.0275C40.716 10.927 40.2079 10.8 39.71 10.649C39.212 10.4979 38.769 10.3027 38.3791 10.0651C37.9899 9.82686 37.6796 9.53175 37.449 9.17788C37.2183 8.82465 37.1027 8.38104 37.1027 7.84708C37.1027 7.21264 37.2758 6.6357 37.6221 6.11627C37.9684 5.59684 38.4765 5.1861 39.1476 4.88278C39.818 4.5801 40.6079 4.42844 41.5166 4.42844C42.8436 4.42844 43.8894 4.72417 44.654 5.31564C45.4186 5.90711 45.873 6.72228 46.0171 7.76051H43.2695C43.1829 7.41422 42.9915 7.14755 42.6964 6.95988C42.4006 6.77283 42.0076 6.67867 41.5172 6.67867C41.0269 6.67867 40.6193 6.77283 40.3381 6.95988C40.0569 7.14755 39.916 7.38578 39.916 7.67393C39.916 7.87615 40.0057 8.05624 40.1864 8.21485C40.3665 8.37346 40.6224 8.51059 40.9548 8.62623C41.2866 8.74187 41.6904 8.84992 42.1662 8.95103C43.0028 9.12417 43.7384 9.32259 44.3728 9.54629C45.0073 9.76999 45.5052 10.0872 45.866 10.4986C46.2262 10.91 46.407 11.5046 46.407 12.2837C46.407 12.9763 46.2193 13.5924 45.8446 14.1333C45.4692 14.6743 44.939 15.0964 44.254 15.3991C43.569 15.7017 42.7577 15.8534 41.8199 15.8534H41.8193Z" fill="white"/>
<path d="M52.3779 15.5937C51.6278 15.5937 50.9643 15.4749 50.3874 15.2367C49.8104 14.9984 49.363 14.6022 49.0458 14.0468C48.7286 13.492 48.57 12.7305 48.57 11.7643V7.13429H46.6875V4.68943H48.57L48.8948 1.70364H51.4913V4.68943H54.369V7.13429H51.4913V11.8079C51.4913 12.2983 51.5994 12.6376 51.8161 12.8247C52.0322 13.0123 52.4006 13.1059 52.9194 13.1059H54.3261V15.5943H52.3785L52.3779 15.5937Z" fill="white"/>
<path d="M60.6433 15.8534C59.5899 15.8534 58.649 15.6114 57.8199 15.1286C56.9902 14.6452 56.3343 13.9747 55.8509 13.1166C55.3675 12.2584 55.1261 11.2739 55.1261 10.163C55.1261 9.05212 55.3675 8.02463 55.8509 7.1665C56.3336 6.30836 56.994 5.6379 57.8307 5.15449C58.6673 4.67108 59.612 4.42969 60.6648 4.42969C61.7175 4.42969 62.6553 4.67171 63.4774 5.15449C64.2995 5.6379 64.9523 6.3052 65.4357 7.15575C65.9191 8.00694 66.1605 9.0022 66.1605 10.1415C66.1605 11.2809 65.9185 12.2584 65.4357 13.1166C64.9523 13.9747 64.2957 14.6458 63.4667 15.1286C62.637 15.612 61.6961 15.8534 60.6433 15.8534ZM60.6433 13.3219C61.1046 13.3219 61.5267 13.2031 61.909 12.9649C62.2913 12.7267 62.6016 12.3697 62.8392 11.8938C63.0774 11.418 63.1962 10.8335 63.1962 10.1415C63.1962 9.44959 63.0806 8.84675 62.8499 8.37787C62.6193 7.90899 62.316 7.55575 61.9412 7.31752C61.5659 7.07929 61.1476 6.96049 60.6863 6.96049C60.225 6.96049 59.7776 7.07929 59.3883 7.31752C58.9991 7.55575 58.6888 7.90899 58.4581 8.37787C58.2275 8.84675 58.1119 9.43443 58.1119 10.1415C58.1119 10.8486 58.2237 11.418 58.4474 11.8938C58.6711 12.3697 58.9776 12.7267 59.3668 12.9649C59.7561 13.2031 60.1814 13.3219 60.6433 13.3219Z" fill="white"/>
<path d="M67.588 15.5937V4.68879H70.1845L70.4442 6.67932C70.7179 6.21802 71.0534 5.81739 71.4502 5.47868C71.8471 5.13998 72.3014 4.88026 72.8133 4.69954C73.3251 4.51944 73.8913 4.42908 74.5119 4.42908V7.52292H73.5166C73.0837 7.52292 72.6837 7.56968 72.316 7.66383C71.9482 7.75799 71.6272 7.92355 71.3529 8.16178C71.0787 8.40001 70.8695 8.71028 70.7254 9.09195C70.5807 9.47426 70.5093 9.96083 70.5093 10.5523V15.5937H67.5886H67.588Z" fill="white"/>
<path d="M77.1735 20.3539L79.8129 14.3823H79.164L74.8152 4.68878H77.9741L81.09 11.6992L83.8812 4.68878H86.9971L80.2679 20.3539H77.1741H77.1735Z" fill="white"/>
<path d="M0.839806 39.9728V24.3077H3.43633L3.76113 25.801C3.97725 25.4983 4.2477 25.2133 4.57251 24.946C4.89731 24.6793 5.27898 24.4632 5.71943 24.297C6.15924 24.1314 6.66792 24.048 7.24486 24.048C8.28372 24.048 9.19241 24.297 9.97093 24.7943C10.7501 25.2923 11.3662 25.9735 11.8212 26.8392C12.2755 27.7049 12.503 28.6856 12.503 29.782C12.503 30.8784 12.2723 31.8559 11.8104 32.7141C11.3485 33.5722 10.7286 34.2471 9.94944 34.7368C9.1703 35.2272 8.27614 35.4724 7.26634 35.4724C6.47266 35.4724 5.78451 35.3245 5.2 35.0288C4.61611 34.733 4.13585 34.3254 3.76113 33.806V39.9722H0.840436L0.839806 39.9728ZM6.59525 32.9194C7.15766 32.9194 7.65876 32.7899 8.09921 32.5302C8.53902 32.2705 8.8853 31.9065 9.13807 31.4376C9.3902 30.9687 9.51658 30.4247 9.51658 29.8041C9.51658 29.1836 9.3902 28.6104 9.13807 28.127C8.8853 27.6442 8.53965 27.2689 8.09921 27.0022C7.65876 26.7356 7.15829 26.6022 6.59525 26.6022C6.03222 26.6022 5.53112 26.7356 5.09131 27.0022C4.65086 27.2695 4.30837 27.6405 4.06382 28.1163C3.81864 28.5921 3.69604 29.1476 3.69604 29.7826C3.69604 30.4177 3.81864 30.9479 4.06382 31.4161C4.309 31.885 4.6515 32.2528 5.09131 32.5194C5.53112 32.7867 6.03222 32.9194 6.59525 32.9194Z" fill="white"/>
<path d="M19.1659 35.4723C18.0695 35.4723 17.0995 35.2341 16.2559 34.7583C15.4123 34.2825 14.7558 33.6221 14.2869 32.7785C13.818 31.9349 13.5836 30.9649 13.5836 29.8685C13.5836 28.7722 13.818 27.7264 14.2869 26.8613C14.7558 25.9956 15.4085 25.3106 16.2452 24.8057C17.0818 24.3008 18.055 24.0486 19.1659 24.0486C20.2768 24.0486 21.1924 24.2869 22 24.7627C22.8076 25.2385 23.4351 25.8768 23.8825 26.6774C24.3292 27.478 24.5529 28.3975 24.5529 29.4363C24.5529 29.5804 24.5491 29.7428 24.5422 29.9229C24.5346 30.1036 24.5239 30.2875 24.51 30.4746H15.6822V28.6787H21.6107C21.5678 28.0006 21.3188 27.4528 20.8645 27.0344C20.4101 26.6161 19.8509 26.4069 19.1874 26.4069C18.6825 26.4069 18.2243 26.5257 17.8136 26.764C17.4022 27.0022 17.0743 27.3485 16.8291 27.8028C16.5839 28.2572 16.4613 28.8303 16.4613 29.5229V30.1504C16.4613 30.7419 16.5731 31.2575 16.7968 31.6973C17.0205 32.1377 17.334 32.4802 17.7378 32.7248C18.1416 32.97 18.6104 33.0926 19.1444 33.0926C19.6784 33.0926 20.1359 32.9807 20.4752 32.757C20.8139 32.5333 21.0774 32.2344 21.2651 31.8591H24.2294C24.0417 32.5371 23.7062 33.1539 23.2234 33.7093C22.74 34.2648 22.1555 34.6976 21.4711 35.0073C20.7861 35.3175 20.0177 35.4723 19.1665 35.4723H19.1659Z" fill="white"/>
<path d="M31.0446 35.4723C29.9912 35.4723 29.0502 35.2303 28.2212 34.7475C27.3915 34.2641 26.7355 33.5937 26.2521 32.7355C25.7687 31.8774 25.5273 30.8929 25.5273 29.782C25.5273 28.6711 25.7687 27.6436 26.2521 26.7855C26.7355 25.9273 27.3953 25.2569 28.2319 24.7734C29.0686 24.2907 30.0133 24.0486 31.066 24.0486C32.1188 24.0486 33.0566 24.2907 33.8787 24.7734C34.7008 25.2569 35.3536 25.9242 35.837 26.7747C36.3204 27.6259 36.5618 28.6212 36.5618 29.7605C36.5618 30.8998 36.3197 31.8774 35.837 32.7355C35.3536 33.5937 34.697 34.2648 33.8679 34.7475C33.0382 35.2303 32.0973 35.4723 31.0446 35.4723ZM31.0446 32.9409C31.5058 32.9409 31.928 32.8221 32.3103 32.5839C32.6926 32.3456 33.0028 31.9886 33.2404 31.5128C33.4787 31.037 33.5975 30.4524 33.5975 29.7605C33.5975 29.0686 33.4818 28.4657 33.2512 27.9968C33.0205 27.5279 32.7172 27.1747 32.3425 26.9365C31.9671 26.6983 31.5488 26.5794 31.0875 26.5794C30.6262 26.5794 30.1788 26.6983 29.7896 26.9365C29.4003 27.1747 29.09 27.5279 28.8594 27.9968C28.6288 28.4657 28.5131 29.0534 28.5131 29.7605C28.5131 30.4676 28.625 31.037 28.8487 31.5128C29.0724 31.9886 29.3788 32.3456 29.7681 32.5839C30.1573 32.8221 30.5826 32.9409 31.0446 32.9409Z" fill="white"/>
<path d="M37.9893 39.9728V24.3077H40.5858L40.9106 25.801C41.1267 25.4983 41.3972 25.2133 41.722 24.946C42.0468 24.6793 42.4284 24.4632 42.8689 24.297C43.3087 24.1314 43.8174 24.048 44.3943 24.048C45.4332 24.048 46.3419 24.297 47.1204 24.7943C47.8995 25.2923 48.5156 25.9735 48.9706 26.8392C49.425 27.7049 49.6524 28.6856 49.6524 29.782C49.6524 30.8784 49.4218 31.8559 48.9599 32.7141C48.4979 33.5722 47.878 34.2471 47.0989 34.7368C46.3197 35.2272 45.4256 35.4724 44.4158 35.4724C43.6221 35.4724 42.934 35.3245 42.3494 35.0288C41.7649 34.733 41.2853 34.3254 40.9106 33.806V39.9722H37.9899L37.9893 39.9728ZM43.7447 32.9194C44.3071 32.9194 44.8082 32.7899 45.2487 32.5302C45.6885 32.2705 46.0348 31.9065 46.2869 31.4376C46.539 30.9687 46.6654 30.4247 46.6654 29.8041C46.6654 29.1836 46.539 28.6104 46.2869 28.127C46.0341 27.6442 45.6885 27.2689 45.2487 27.0022C44.8082 26.7356 44.3077 26.6022 43.7447 26.6022C43.1817 26.6022 42.6806 26.7356 42.2408 27.0022C41.8003 27.2695 41.4578 27.6405 41.2133 28.1163C40.9681 28.5921 40.8455 29.1476 40.8455 29.7826C40.8455 30.4177 40.9681 30.9479 41.2133 31.4161C41.4585 31.885 41.801 32.2528 42.2408 32.5194C42.6806 32.7867 43.1817 32.9194 43.7447 32.9194Z" fill="white"/>
<path d="M51.0793 35.2133V19.6348H54V35.2133H51.0793Z" fill="white"/>
<path d="M61.0111 35.4723C59.9147 35.4723 58.9447 35.2341 58.1011 34.7583C57.2575 34.2825 56.601 33.6221 56.1321 32.7785C55.6632 31.9349 55.4288 30.9649 55.4288 29.8685C55.4288 28.7722 55.6632 27.7264 56.1321 26.8613C56.601 25.9956 57.2537 25.3106 58.0904 24.8057C58.927 24.3008 59.9002 24.0486 61.0111 24.0486C62.122 24.0486 63.0376 24.2869 63.8452 24.7627C64.6528 25.2385 65.2803 25.8768 65.7277 26.6774C66.1744 27.478 66.3981 28.3975 66.3981 29.4363C66.3981 29.5804 66.3943 29.7428 66.3874 29.9229C66.3798 30.1036 66.369 30.2875 66.3551 30.4746H57.5273V28.6787H63.4559C63.4123 28.0006 63.164 27.4528 62.7096 27.0344C62.2553 26.6161 61.6961 26.4069 61.0325 26.4069C60.5276 26.4069 60.0695 26.5257 59.6588 26.764C59.248 27.0022 58.9194 27.3485 58.6743 27.8028C58.4291 28.2572 58.3065 28.8303 58.3065 29.5229V30.1504C58.3065 30.7419 58.4183 31.2575 58.642 31.6973C58.8657 32.1377 59.1792 32.4802 59.5829 32.7248C59.9867 32.97 60.4556 33.0926 60.9896 33.0926C61.5235 33.0926 61.981 32.9807 62.3204 32.757C62.6591 32.5333 62.9226 32.2344 63.1103 31.8591H66.0746C65.8869 32.5371 65.5513 33.1539 65.0686 33.7093C64.5852 34.2648 64.0006 34.6976 63.3163 35.0073C62.6313 35.3175 61.8629 35.4723 61.0117 35.4723H61.0111Z" fill="white"/>
</g>
<defs>
<clipPath id="clip0_14228_1949">
<rect width="87.0142" height="40" fill="white"/>
</clipPath>
</defs>
</svg>
