<svg width="620" height="286" viewBox="0 0 620 286" fill="none" xmlns="http://www.w3.org/2000/svg">
<g clip-path="url(#clip0_14228_2119)">
<path d="M466.247 51.0724C462.803 45.0075 458.152 40.2573 452.294 36.8129C446.436 33.3684 439.754 31.6484 432.253 31.6484C424.752 31.6484 418.016 33.3684 412.055 36.8129C410.74 37.5738 409.493 38.4113 408.299 39.3028L201.151 176.608C195.19 180.052 190.489 184.829 187.045 190.944C183.6 197.058 181.88 204.177 181.88 212.295C181.88 220.413 183.6 227.225 187.045 233.34C190.485 239.454 195.163 244.236 201.075 247.676C206.982 251.12 213.691 252.84 221.192 252.84C228.693 252.84 235.402 251.12 241.309 247.676C242.534 246.965 243.691 246.177 244.812 245.348L449.926 109.106C450.7 108.723 451.465 108.318 452.213 107.881C458.125 104.441 462.798 99.6593 466.243 93.5449C469.683 87.4304 471.407 80.3614 471.407 72.3469C471.407 64.3324 469.683 57.1373 466.243 51.0724H466.247Z" fill="#FF7000"/>
<path d="M40.9776 111.11C35.6331 111.11 30.9055 110.264 26.7946 108.566C22.6838 106.869 19.496 104.046 17.2357 100.088C14.9755 96.1346 13.8453 90.709 13.8453 83.8246V50.8345H0.432243V33.4142H13.8453L16.1596 12.1396H34.6606V33.4142H55.1651V50.8345H34.6606V84.1353C34.6606 87.6293 35.4305 90.0471 36.9749 91.3799C38.5147 92.7171 41.1352 93.3835 44.8363 93.3835H54.859V111.115H40.9821L40.9776 111.11Z" fill="#151414"/>
<path d="M65.0302 111.11V0.108398H85.841V44.8186C88.4074 40.8114 91.8519 37.6011 96.1698 35.1832C100.488 32.7698 105.418 31.5587 110.97 31.5587C117.444 31.5587 122.892 32.9229 127.309 35.6425C131.726 38.3665 135.067 42.3242 137.332 47.5112C139.592 52.7026 140.722 59.0512 140.722 66.5524V111.105H120.065V68.556C120.065 62.2885 118.777 57.4843 116.211 54.1434C113.64 50.8025 109.632 49.1321 104.184 49.1321C100.69 49.1321 97.5566 49.956 94.7785 51.5995C92.0049 53.2429 89.8167 55.6067 88.2273 58.691C86.6334 61.7752 85.8365 65.5799 85.8365 70.1004V111.11H65.0257H65.0302Z" fill="#151414"/>
<path d="M189.904 112.96C182.092 112.96 175.18 111.263 169.169 107.873C163.159 104.482 158.48 99.777 155.14 93.7661C151.799 87.7552 150.128 80.8438 150.128 73.0319C150.128 65.22 151.799 57.7683 155.14 51.6043C158.48 45.4358 163.132 40.555 169.093 36.9575C175.054 33.36 181.988 31.5635 189.904 31.5635C197.819 31.5635 204.343 33.2609 210.098 36.6513C215.852 40.0418 220.323 44.5893 223.511 50.2941C226.694 55.9988 228.288 62.55 228.288 69.9521C228.288 70.9787 228.261 72.1359 228.211 73.4191C228.157 74.7068 228.081 76.0171 227.982 77.3498H165.081V64.5536H207.324C207.018 59.7224 205.244 55.8187 202.007 52.838C198.769 49.8573 194.784 48.367 190.057 48.367C186.459 48.367 183.195 49.2134 180.268 50.9109C177.337 52.6084 175 55.0712 173.253 58.3131C171.506 61.5504 170.633 65.6342 170.633 70.569V75.04C170.633 79.2544 171.43 82.9285 173.024 86.0622C174.618 89.2005 176.851 91.6409 179.728 93.3834C182.605 95.1304 185.946 96.0039 189.751 96.0039C193.555 96.0039 196.815 95.2069 199.233 93.613C201.646 92.0191 203.524 89.8894 204.861 87.2149H225.983C224.645 92.0461 222.254 96.4406 218.815 100.398C215.37 104.356 211.205 107.44 206.329 109.647C201.448 111.857 195.973 112.96 189.908 112.96H189.904Z" fill="#151414"/>
<path d="M297.974 112.96C290.779 112.96 284.583 111.83 279.396 109.569C274.205 107.309 270.121 104.198 267.14 100.24C264.16 96.2868 262.462 91.7347 262.052 86.5973H282.863C283.273 88.4478 284.097 90.1948 285.331 91.8383C286.564 93.4817 288.208 94.7694 290.265 95.6924C292.319 96.6154 294.786 97.0792 297.668 97.0792C300.549 97.0792 302.728 96.692 304.529 95.9221C306.326 95.1521 307.663 94.0985 308.537 92.7613C309.41 91.4285 309.847 90.0372 309.847 88.5964C309.847 86.4397 309.203 84.7963 307.92 83.6616C306.632 82.5315 304.809 81.5544 302.445 80.7305C300.081 79.911 297.204 79.1906 293.813 78.5738C290.112 77.8579 286.492 76.9528 282.944 75.8767C279.396 74.8006 276.24 73.4093 273.462 71.7164C270.688 70.0189 268.478 67.9162 266.834 65.3948C265.191 62.8779 264.367 59.7171 264.367 55.9125C264.367 51.3919 265.6 47.2811 268.068 43.58C270.535 39.8789 274.155 36.9523 278.937 34.791C283.714 32.6343 289.342 31.5537 295.817 31.5537C305.272 31.5537 312.724 33.6609 318.172 37.8753C323.62 42.0897 326.858 47.8979 327.884 55.2956H308.307C307.69 52.8282 306.326 50.9282 304.223 49.5909C302.116 48.2582 299.315 47.5873 295.822 47.5873C292.328 47.5873 289.423 48.2582 287.42 49.5909C285.416 50.9282 284.412 52.6256 284.412 54.6788C284.412 56.1196 285.051 57.4028 286.339 58.5329C287.622 59.6631 289.446 60.6401 291.814 61.4641C294.178 62.2881 297.055 63.058 300.446 63.7784C306.407 65.0121 311.648 66.4259 316.169 68.0198C320.689 69.6137 324.237 71.874 326.808 74.8051C329.374 77.7363 330.662 81.9732 330.662 87.5248C330.662 92.4596 329.325 96.8496 326.655 100.704C323.98 104.558 320.203 107.566 315.322 109.722C310.441 111.879 304.66 112.96 297.978 112.96H297.974Z" fill="#151414"/>
<path d="M373.207 111.11C367.862 111.11 363.135 110.264 359.024 108.566C354.913 106.869 351.725 104.046 349.465 100.088C347.205 96.1346 346.074 90.709 346.074 83.8246V50.8345H332.661V33.4142H346.074L348.389 12.1396H366.89V33.4142H387.394V50.8345H366.89V84.1353C366.89 87.6293 367.66 90.0471 369.204 91.3799C370.744 92.7171 373.369 93.3835 377.065 93.3835H387.088V111.115H373.211L373.207 111.11Z" fill="#151414"/>
<path d="M432.1 112.96C424.594 112.96 417.89 111.236 411.983 107.796C406.071 104.352 401.397 99.5744 397.953 93.4599C394.508 87.3455 392.788 80.3305 392.788 72.415C392.788 64.4996 394.508 57.1784 397.953 51.064C401.393 44.9495 406.098 40.1723 412.059 36.7279C418.021 33.2834 424.752 31.5635 432.253 31.5635C439.754 31.5635 446.436 33.288 452.294 36.7279C458.152 40.1723 462.803 44.927 466.247 50.9874C469.692 57.0524 471.412 64.1439 471.412 72.2619C471.412 80.38 469.687 87.3455 466.247 93.4599C462.803 99.5744 458.125 104.356 452.217 107.796C446.305 111.24 439.601 112.96 432.1 112.96ZM432.1 94.9232C435.387 94.9232 438.394 94.0768 441.119 92.3793C443.843 90.6819 446.053 88.1379 447.746 84.7475C449.444 81.3571 450.29 77.1922 450.29 72.2619C450.29 67.3317 449.466 63.0362 447.823 59.6953C446.179 56.3545 444.018 53.8375 441.348 52.1401C438.674 50.4426 435.693 49.5962 432.406 49.5962C429.119 49.5962 425.931 50.4426 423.158 52.1401C420.384 53.8375 418.174 56.3545 416.53 59.6953C414.887 63.0362 414.063 67.2236 414.063 72.2619C414.063 77.3003 414.86 81.3571 416.454 84.7475C418.048 88.1379 420.231 90.6819 423.005 92.3793C425.778 94.0768 428.809 94.9232 432.1 94.9232Z" fill="#151414"/>
<path d="M481.583 111.109V33.4091H500.084L501.934 47.5922C503.884 44.3053 506.275 41.4507 509.102 39.0373C511.93 36.624 515.167 34.7734 518.814 33.4857C522.461 32.2025 526.496 31.5586 530.917 31.5586V53.603H523.826C520.742 53.603 517.891 53.9362 515.271 54.6071C512.65 55.278 510.363 56.4577 508.409 58.1551C506.455 59.8526 504.965 62.0633 503.938 64.7829C502.907 67.5069 502.398 70.9738 502.398 75.1882V111.109H481.587H481.583Z" fill="#151414"/>
<path d="M549.882 145.027L568.689 102.478H564.065L533.078 33.4092H555.587L577.789 83.3604L597.676 33.4092H619.878L571.931 145.027H549.886H549.882Z" fill="#151414"/>
<path d="M5.98389 284.817V173.199H24.4848L26.7991 183.839C28.339 181.682 30.2661 179.651 32.5804 177.747C34.8947 175.847 37.6142 174.307 40.7525 173.123C43.8863 171.943 47.5108 171.349 51.6216 171.349C59.0238 171.349 65.4985 173.123 71.0456 176.666C76.5973 180.214 80.9872 185.068 84.2291 191.236C87.4664 197.405 89.0873 204.393 89.0873 212.205C89.0873 220.017 87.4439 226.982 84.1525 233.096C80.8612 239.211 76.4442 244.02 70.8925 247.509C65.3409 251.003 58.9698 252.75 51.7747 252.75C46.1195 252.75 41.2163 251.696 37.0514 249.589C32.8911 247.482 29.4691 244.578 26.7991 240.877V284.813H5.98838L5.98389 284.817ZM46.993 234.56C51.0003 234.56 54.5708 233.637 57.7091 231.786C60.8429 229.936 63.3102 227.342 65.1113 224.001C66.9078 220.66 67.8083 216.784 67.8083 212.362C67.8083 207.941 66.9078 203.857 65.1113 200.413C63.3102 196.973 60.8474 194.298 57.7091 192.398C54.5708 190.498 51.0048 189.548 46.993 189.548C42.9813 189.548 39.4108 190.498 36.277 192.398C33.1387 194.303 30.6983 196.946 28.9558 200.336C27.2089 203.726 26.3354 207.684 26.3354 212.209C26.3354 216.734 27.2089 220.512 28.9558 223.848C30.7028 227.189 33.1432 229.81 36.277 231.71C39.4108 233.614 42.9813 234.56 46.993 234.56Z" fill="#151414"/>
<path d="M136.562 252.75C128.75 252.75 121.839 251.053 115.828 247.663C109.817 244.272 105.139 239.567 101.798 233.556C98.4571 227.545 96.7866 220.634 96.7866 212.822C96.7866 205.01 98.4571 197.558 101.798 191.394C105.139 185.226 109.79 180.345 115.751 176.748C121.713 173.15 128.647 171.354 136.562 171.354C144.478 171.354 151.002 173.051 156.756 176.441C162.51 179.832 166.981 184.379 170.169 190.084C173.352 195.789 174.946 202.34 174.946 209.742C174.946 210.769 174.919 211.926 174.87 213.209C174.816 214.497 174.739 215.807 174.64 217.14H111.74V204.344H153.982C153.676 199.512 151.902 195.609 148.665 192.628C145.428 189.647 141.443 188.157 136.715 188.157C133.118 188.157 129.853 189.003 126.927 190.701C123.996 192.398 121.659 194.866 119.912 198.103C118.165 201.34 117.291 205.424 117.291 210.359V214.83C117.291 219.044 118.088 222.719 119.682 225.852C121.276 228.991 123.509 231.431 126.386 233.173C129.263 234.92 132.604 235.794 136.409 235.794C140.214 235.794 143.474 234.997 145.891 233.403C148.305 231.809 150.182 229.679 151.52 227.005H172.641C171.304 231.836 168.913 236.231 165.473 240.188C162.028 244.146 157.864 247.23 152.987 249.437C148.107 251.647 142.632 252.75 136.567 252.75H136.562Z" fill="#151414"/>
<path d="M221.201 252.75C213.695 252.75 206.991 251.026 201.084 247.586C195.172 244.142 190.498 239.364 187.054 233.25C183.609 227.135 181.889 220.121 181.889 212.205C181.889 204.29 183.609 196.968 187.054 190.854C190.498 184.74 195.199 179.962 201.16 176.518C207.121 173.078 213.853 171.354 221.354 171.354C228.855 171.354 235.537 173.078 241.395 176.518C247.253 179.962 251.904 184.717 255.348 190.777C258.793 196.842 260.513 203.934 260.513 212.052C260.513 220.17 258.788 227.135 255.348 233.25C251.904 239.364 247.226 244.146 241.318 247.586C235.406 251.026 228.702 252.75 221.201 252.75ZM221.201 234.713C224.488 234.713 227.495 233.867 230.219 232.169C232.944 230.472 235.154 227.928 236.847 224.538C238.545 221.147 239.391 216.982 239.391 212.052C239.391 207.122 238.567 202.826 236.924 199.485C235.28 196.145 233.119 193.628 230.449 191.93C227.775 190.233 224.794 189.386 221.507 189.386C218.22 189.386 215.032 190.233 212.259 191.93C209.485 193.628 207.275 196.145 205.631 199.485C203.988 202.826 203.164 207.014 203.164 212.052C203.164 217.09 203.961 221.147 205.555 224.538C207.148 227.928 209.332 230.472 212.106 232.169C214.879 233.867 217.91 234.713 221.201 234.713Z" fill="#151414"/>
<path d="M270.684 284.817V173.199H289.185L291.499 183.839C293.039 181.682 294.966 179.651 297.28 177.747C299.595 175.847 302.314 174.307 305.452 173.123C308.586 171.943 312.211 171.349 316.322 171.349C323.724 171.349 330.198 173.123 335.746 176.666C341.297 180.214 345.687 185.068 348.929 191.236C352.166 197.405 353.787 204.393 353.787 212.205C353.787 220.017 352.144 226.982 348.852 233.096C345.561 239.211 341.144 244.02 335.592 247.509C330.041 251.003 323.67 252.75 316.475 252.75C310.819 252.75 305.916 251.696 301.751 249.589C297.586 247.482 294.169 244.578 291.499 240.877V284.813H270.688L270.684 284.817ZM311.693 234.56C315.7 234.56 319.271 233.637 322.409 231.786C325.543 229.936 328.01 227.342 329.807 224.001C331.603 220.66 332.504 216.784 332.504 212.362C332.504 207.941 331.603 203.857 329.807 200.413C328.006 196.973 325.543 194.298 322.409 192.398C319.271 190.498 315.705 189.548 311.693 189.548C307.681 189.548 304.111 190.498 300.977 192.398C297.839 194.303 295.398 196.946 293.656 200.336C291.909 203.726 291.035 207.684 291.035 212.209C291.035 216.734 291.909 220.512 293.656 223.848C295.403 227.189 297.843 229.81 300.977 231.71C304.111 233.614 307.681 234.56 311.693 234.56Z" fill="#151414"/>
<path d="M363.954 250.904V139.903H384.765V250.904H363.954Z" fill="#151414"/>
<path d="M434.72 252.75C426.909 252.75 419.997 251.053 413.986 247.663C407.975 244.272 403.297 239.567 399.956 233.556C396.615 227.545 394.945 220.634 394.945 212.822C394.945 205.01 396.615 197.558 399.956 191.394C403.297 185.226 407.948 180.345 413.91 176.748C419.871 173.15 426.805 171.354 434.72 171.354C442.636 171.354 449.16 173.051 454.914 176.441C460.669 179.832 465.14 184.379 468.327 190.084C471.511 195.789 473.105 202.34 473.105 209.742C473.105 210.769 473.078 211.926 473.028 213.209C472.974 214.497 472.897 215.807 472.798 217.14H409.898V204.344H452.141C451.83 199.512 450.061 195.609 446.823 192.628C443.586 189.647 439.601 188.157 434.874 188.157C431.276 188.157 428.012 189.003 425.085 190.701C422.158 192.398 419.817 194.866 418.07 198.103C416.323 201.34 415.45 205.424 415.45 210.359V214.83C415.45 219.044 416.247 222.719 417.84 225.852C419.434 228.991 421.668 231.431 424.545 233.173C427.422 234.92 430.763 235.794 434.567 235.794C438.372 235.794 441.632 234.997 444.05 233.403C446.463 231.809 448.341 229.679 449.678 227.005H470.799C469.462 231.836 467.071 236.231 463.631 240.188C460.187 244.146 456.022 247.23 451.146 249.437C446.265 251.647 440.79 252.75 434.725 252.75H434.72Z" fill="#151414"/>
</g>
<defs>
<clipPath id="clip0_14228_2119">
<rect width="620" height="285.011" fill="white"/>
</clipPath>
</defs>
</svg>
