<svg width="637" height="131" viewBox="0 0 637 131" fill="none" xmlns="http://www.w3.org/2000/svg">
<path d="M593.467 130.32C584.227 130.32 576.127 128.7 569.167 125.46C562.327 122.1 556.987 117.42 553.147 111.42C549.307 105.42 547.327 98.4 547.207 90.36H566.107C566.227 94.92 567.247 99.12 569.167 102.96C571.207 106.68 574.267 109.68 578.347 111.96C582.427 114.12 587.467 115.2 593.467 115.2C598.387 115.2 602.707 114.48 606.427 113.04C610.147 111.6 613.027 109.5 615.067 106.74C617.227 103.86 618.307 100.26 618.307 95.94C618.307 91.62 617.287 88.02 615.247 85.14C613.327 82.26 610.627 79.86 607.147 77.94C603.667 76.02 599.827 74.34 595.627 72.9C591.427 71.46 587.107 69.96 582.667 68.4C571.987 64.68 564.007 60.12 558.727 54.72C553.567 49.2 550.987 42.24 550.987 33.84C550.987 27.24 552.667 21.42 556.027 16.38C559.387 11.22 564.127 7.2 570.247 4.32C576.367 1.44 583.507 0 591.667 0C599.827 0 606.967 1.5 613.087 4.49999C619.207 7.49999 624.007 11.64 627.487 16.92C630.967 22.2 632.707 28.38 632.707 35.46H613.807C613.687 31.38 612.727 27.84 610.927 24.84C609.127 21.72 606.547 19.26 603.187 17.46C599.827 15.66 595.627 14.76 590.587 14.76C586.627 14.76 583.027 15.36 579.787 16.56C576.547 17.76 573.967 19.68 572.047 22.32C570.247 24.84 569.347 28.2 569.347 32.4C569.347 35.88 570.067 38.82 571.507 41.22C573.067 43.62 575.287 45.72 578.167 47.52C581.167 49.2 584.767 50.88 588.967 52.56C593.167 54.12 597.967 55.92 603.367 57.96C609.607 60.12 615.187 62.7 620.107 65.7C625.147 68.58 629.107 72.3 631.987 76.86C634.987 81.3 636.487 87.06 636.487 94.14C636.487 100.38 634.867 106.26 631.627 111.78C628.387 117.3 623.587 121.8 617.227 125.28C610.867 128.64 602.947 130.32 593.467 130.32Z" fill="#1E1E1E"/>
<path d="M457.819 128.16V2.16016H537.379V16.9202H475.819V57.2402H531.979V71.6402H475.819V113.4H537.379V128.16H457.819Z" fill="#1E1E1E"/>
<path d="M423.542 128.16V2.16016H441.542V128.16H423.542Z" fill="#1E1E1E"/>
<path d="M325.631 128.16V2.16016H368.291C378.251 2.16016 386.411 3.84016 392.771 7.20016C399.131 10.5602 403.811 15.0602 406.811 20.7002C409.931 26.2202 411.491 32.5202 411.491 39.6002C411.491 46.3202 409.931 52.5602 406.811 58.3202C403.811 63.9602 399.071 68.5202 392.591 72.0002C386.111 75.3602 377.831 77.0402 367.751 77.0402H343.631V128.16H325.631ZM391.871 128.16L364.691 72.1802H384.491L412.751 128.16H391.871ZM343.631 63.3602H367.031C376.031 63.3602 382.571 61.2002 386.651 56.8802C390.851 52.4402 392.951 46.8002 392.951 39.9602C392.951 33.0002 390.911 27.4802 386.831 23.4002C382.751 19.3202 376.151 17.2802 367.031 17.2802H343.631V63.3602Z" fill="#1E1E1E"/>
<path d="M248.83 130.32C236.47 130.32 225.61 127.62 216.25 122.22C206.89 116.7 199.57 109.08 194.29 99.36C189.01 89.52 186.37 78.12 186.37 65.16C186.37 52.32 189.01 41.04 194.29 31.32C199.57 21.48 206.89 13.8 216.25 8.28C225.61 2.76 236.47 0 248.83 0C261.31 0 272.23 2.76 281.59 8.28C290.95 13.8 298.21 21.48 303.37 31.32C308.65 41.04 311.29 52.32 311.29 65.16C311.29 78.12 308.65 89.52 303.37 99.36C298.21 109.08 290.95 116.7 281.59 122.22C272.23 127.62 261.31 130.32 248.83 130.32ZM248.83 114.3C257.59 114.3 265.27 112.32 271.87 108.36C278.59 104.4 283.75 98.76 287.35 91.44C291.07 84.12 292.93 75.36 292.93 65.16C292.93 54.96 291.07 46.2 287.35 38.88C283.75 31.56 278.59 25.98 271.87 22.14C265.27 18.18 257.59 16.2 248.83 16.2C240.07 16.2 232.39 18.18 225.79 22.14C219.19 25.98 214.03 31.56 210.31 38.88C206.59 46.2 204.73 54.96 204.73 65.16C204.73 75.36 206.59 84.12 210.31 91.44C214.03 98.76 219.19 104.4 225.79 108.36C232.39 112.32 240.07 114.3 248.83 114.3Z" fill="#1E1E1E"/>
<path d="M129.641 128.16V16.9202H92.2007V2.16016H184.901V16.9202H147.461V128.16H129.641Z" fill="#1E1E1E"/>
<path d="M46.26 130.32C37.02 130.32 28.92 128.7 21.96 125.46C15.12 122.1 9.78 117.42 5.94 111.42C2.1 105.42 0.12 98.4 0 90.36H18.9C19.02 94.92 20.04 99.12 21.96 102.96C24 106.68 27.06 109.68 31.14 111.96C35.22 114.12 40.26 115.2 46.26 115.2C51.18 115.2 55.5 114.48 59.22 113.04C62.94 111.6 65.82 109.5 67.86 106.74C70.02 103.86 71.1 100.26 71.1 95.94C71.1 91.62 70.08 88.02 68.04 85.14C66.12 82.26 63.42 79.86 59.94 77.94C56.46 76.02 52.62 74.34 48.42 72.9C44.22 71.46 39.9 69.96 35.46 68.4C24.78 64.68 16.8 60.12 11.52 54.72C6.36 49.2 3.78 42.24 3.78 33.84C3.78 27.24 5.46 21.42 8.82 16.38C12.18 11.22 16.92 7.2 23.04 4.32C29.16 1.44 36.3 0 44.46 0C52.62 0 59.76 1.5 65.88 4.49999C72 7.49999 76.8 11.64 80.28 16.92C83.76 22.2 85.5 28.38 85.5 35.46H66.6C66.48 31.38 65.52 27.84 63.72 24.84C61.92 21.72 59.34 19.26 55.98 17.46C52.62 15.66 48.42 14.76 43.38 14.76C39.42 14.76 35.82 15.36 32.58 16.56C29.34 17.76 26.76 19.68 24.84 22.32C23.04 24.84 22.14 28.2 22.14 32.4C22.14 35.88 22.86 38.82 24.3 41.22C25.86 43.62 28.08 45.72 30.96 47.52C33.96 49.2 37.56 50.88 41.76 52.56C45.96 54.12 50.76 55.92 56.16 57.96C62.4 60.12 67.98 62.7 72.9 65.7C77.94 68.58 81.9 72.3 84.78 76.86C87.78 81.3 89.28 87.06 89.28 94.14C89.28 100.38 87.66 106.26 84.42 111.78C81.18 117.3 76.38 121.8 70.02 125.28C63.66 128.64 55.74 130.32 46.26 130.32Z" fill="#1E1E1E"/>
</svg>
