<svg width="393" height="389" viewBox="0 0 393 389" fill="none" xmlns="http://www.w3.org/2000/svg">
<path d="M393 388.96H0V0H393V388.96ZM128.682 299.04C124.948 299.04 121.561 299.68 118.521 300.96C115.482 302.24 113.081 304.106 111.321 306.56C109.561 309.013 108.682 312.026 108.682 315.6C108.682 319.866 109.908 323.253 112.361 325.76C114.815 328.213 118.201 330.16 122.521 331.6C124.281 332.186 125.935 332.774 127.481 333.36C129.081 333.894 130.495 334.507 131.722 335.2C132.948 335.84 133.908 336.613 134.602 337.52C135.295 338.373 135.642 339.413 135.642 340.64C135.642 341.76 135.375 342.694 134.842 343.44C134.309 344.134 133.588 344.667 132.682 345.04C131.828 345.36 130.842 345.519 129.722 345.52C128.388 345.52 127.188 345.253 126.121 344.72C125.055 344.186 124.201 343.44 123.562 342.48C122.922 341.52 122.548 340.373 122.441 339.04H107.881C108.041 342.987 109.081 346.293 111.001 348.96C112.974 351.627 115.588 353.627 118.841 354.96C122.147 356.293 125.802 356.96 129.802 356.96C134.175 356.96 137.881 356.186 140.921 354.64C143.961 353.04 146.281 350.933 147.881 348.32C149.481 345.707 150.281 342.826 150.281 339.68C150.281 336.106 149.508 333.253 147.961 331.12C146.468 328.987 144.468 327.28 141.961 326C139.508 324.667 136.841 323.52 133.961 322.56C132.468 322.08 131.055 321.6 129.722 321.12C128.442 320.587 127.295 320.053 126.281 319.52C125.321 318.933 124.548 318.266 123.961 317.52C123.428 316.72 123.161 315.813 123.161 314.8C123.161 313.787 123.401 312.96 123.881 312.32C124.414 311.68 125.081 311.2 125.881 310.88C126.734 310.56 127.642 310.427 128.602 310.48C129.615 310.481 130.548 310.72 131.401 311.2C132.255 311.627 132.948 312.24 133.481 313.04C134.068 313.84 134.388 314.773 134.441 315.84H149.241C149.081 312.267 148.095 309.226 146.281 306.72C144.521 304.213 142.121 302.32 139.081 301.04C136.095 299.707 132.628 299.04 128.682 299.04ZM229.114 299.04C223.514 299.04 218.581 300.266 214.314 302.72C210.048 305.173 206.688 308.587 204.234 312.96C201.834 317.28 200.635 322.293 200.635 328C200.635 333.707 201.834 338.747 204.234 343.12C206.688 347.44 210.048 350.827 214.314 353.28C218.581 355.734 223.514 356.96 229.114 356.96C234.714 356.96 239.647 355.733 243.914 353.28C248.234 350.827 251.594 347.44 253.994 343.12C256.394 338.747 257.595 333.707 257.595 328C257.595 322.293 256.394 317.28 253.994 312.96C251.594 308.587 248.234 305.173 243.914 302.72C239.647 300.267 234.714 299.04 229.114 299.04ZM33 356H47.3203L51.5684 340.96H70.8018L75 356H89.4805L72.6797 300H49.7998L33 356ZM152.688 310.96H168.768V356H182.447V310.96H198.527V300H152.688V310.96ZM264.013 356H277.692V334.96H283.171L292.652 356H308.093L297.116 333.299C297.68 333.074 298.219 332.83 298.732 332.56C301.772 330.906 304.012 328.773 305.452 326.16C306.892 323.493 307.612 320.666 307.612 317.68C307.612 314.426 306.84 311.466 305.293 308.8C303.8 306.133 301.505 304 298.412 302.4C295.372 300.8 291.559 300 286.973 300H264.013V356ZM327.438 337.44V356H341.118V337.44L360.479 300H345.118L334.559 324.24H334.238L323.599 300H308.078L327.438 337.44ZM229.114 311.44C232.154 311.44 234.741 312.133 236.874 313.52C239.061 314.853 240.741 316.747 241.914 319.2C243.087 321.654 243.675 324.587 243.675 328C243.675 331.36 243.087 334.293 241.914 336.8C240.741 339.253 239.061 341.173 236.874 342.56C234.741 343.893 232.154 344.56 229.114 344.56C226.128 344.56 223.541 343.893 221.354 342.56C219.168 341.173 217.488 339.253 216.314 336.8C215.141 334.293 214.555 331.36 214.555 328C214.555 324.587 215.141 321.653 216.314 319.2C217.488 316.747 219.168 314.853 221.354 313.52C223.541 312.133 226.128 311.44 229.114 311.44ZM67.8545 330.4H54.5508L61.0801 307.28H61.4004L67.8545 330.4ZM286.173 311.36C288.733 311.36 290.626 312 291.853 313.28C293.079 314.507 293.692 316.16 293.692 318.24C293.692 320.427 293.079 322.16 291.853 323.44C290.626 324.667 288.733 325.28 286.173 325.28H277.692V311.36H286.173ZM106.793 289H126.553L134.873 244.6H135.193L143.993 289H163.753L175.193 233H160.474L153.593 280.92H153.273L143.833 233H126.553L117.913 280.92H117.513L109.593 233H94.9531L106.793 289ZM179.169 289H192.849V233H179.169V289ZM196.828 243.96H212.908V289H226.588V243.96H242.668V233H196.828V243.96ZM246.669 289H260.349V265.88H281.629V289H295.309V233H281.629V254.84H260.349V233H246.669V289ZM182.677 165.04C176.65 165.04 171.476 166.32 167.156 168.88C162.89 171.387 159.61 174.854 157.316 179.28C155.023 183.707 153.877 188.8 153.877 194.56C153.877 200.266 154.943 205.253 157.076 209.52C159.21 213.786 162.144 217.094 165.877 219.44C169.61 221.787 173.823 222.96 178.517 222.96C181.023 222.96 183.343 222.613 185.477 221.92C187.663 221.227 189.583 220.213 191.236 218.88C192.89 217.493 194.25 215.84 195.316 213.92H195.637L196.597 222H209.236V190.32H183.477V200.4H195.557C195.023 203.28 193.663 205.76 191.477 207.84C189.343 209.866 186.197 210.88 182.037 210.88C178.997 210.88 176.41 210.267 174.276 209.04C172.143 207.813 170.516 206 169.396 203.6C168.33 201.146 167.797 198.159 167.797 194.64C167.797 191.173 168.33 188.186 169.396 185.68C170.516 183.12 172.17 181.146 174.356 179.76C176.543 178.373 179.29 177.68 182.597 177.68C185.317 177.68 187.53 178.187 189.236 179.2C190.996 180.16 192.303 181.574 193.156 183.44H208.276C206.943 177.68 204.037 173.173 199.557 169.92C195.13 166.667 189.503 165.04 182.677 165.04ZM313.955 165.04C310.222 165.04 306.835 165.68 303.795 166.96C300.755 168.24 298.355 170.106 296.595 172.56C294.835 175.013 293.955 178.026 293.955 181.6C293.955 185.866 295.181 189.253 297.635 191.76C300.088 194.213 303.475 196.16 307.795 197.6C309.555 198.186 311.208 198.774 312.755 199.36C314.355 199.894 315.769 200.507 316.995 201.2C318.222 201.84 319.182 202.613 319.875 203.52C320.568 204.373 320.915 205.413 320.915 206.64C320.915 207.76 320.648 208.694 320.114 209.44C319.581 210.133 318.861 210.667 317.955 211.04C317.102 211.36 316.115 211.519 314.995 211.52C313.662 211.52 312.461 211.253 311.395 210.72C310.328 210.186 309.475 209.44 308.835 208.48C308.195 207.52 307.822 206.373 307.715 205.04H293.154C293.314 208.987 294.355 212.293 296.274 214.96C298.248 217.627 300.861 219.627 304.114 220.96C307.421 222.293 311.075 222.96 315.075 222.96C319.448 222.96 323.154 222.186 326.194 220.64C329.234 219.04 331.554 216.933 333.154 214.32C334.754 211.707 335.555 208.826 335.555 205.68C335.555 202.106 334.781 199.253 333.234 197.12C331.741 194.987 329.741 193.28 327.234 192C324.781 190.667 322.114 189.52 319.234 188.56C317.741 188.08 316.328 187.6 314.995 187.12C313.715 186.587 312.568 186.053 311.555 185.52C310.595 184.933 309.821 184.266 309.234 183.52C308.701 182.72 308.435 181.813 308.435 180.8C308.435 179.787 308.675 178.96 309.154 178.32C309.688 177.68 310.354 177.2 311.154 176.88C312.008 176.56 312.915 176.427 313.875 176.48C314.888 176.481 315.822 176.72 316.675 177.2C317.528 177.627 318.222 178.24 318.755 179.04C319.341 179.84 319.661 180.773 319.715 181.84H334.515C334.355 178.267 333.368 175.226 331.555 172.72C329.795 170.213 327.394 168.32 324.354 167.04C321.368 165.707 317.902 165.04 313.955 165.04ZM59.5205 222H85.6807C89.6272 222 92.9875 221.387 95.7607 220.16C98.534 218.88 100.64 217.093 102.08 214.8C103.573 212.506 104.32 209.813 104.32 206.72C104.32 204.32 103.761 202.107 102.641 200.08C101.521 198 99.9733 196.32 98 195.04C96.6731 194.144 95.1892 193.525 93.5488 193.184C94.542 192.901 95.4928 192.534 96.4004 192.08C98.4271 191.013 100.027 189.52 101.2 187.6C102.427 185.68 103.04 183.333 103.04 180.56C103.04 177.573 102.321 175.013 100.881 172.88C99.4409 170.693 97.3605 169.013 94.6406 167.84C91.9207 166.613 88.6406 166 84.8008 166H59.5205V222ZM110.302 222H148.701V211.04H123.981V198.72H146.302V188.16H123.981V176.96H148.701V166H110.302V222ZM216.474 222H230.153V166H216.474V222ZM237.333 222H251.013V185.52H251.333L271.493 222H287.573V166H273.893V202.56H273.573L253.413 166H237.333V222ZM83.1201 198.56C85.4135 198.56 87.2005 199.12 88.4805 200.24C89.8137 201.307 90.4804 202.853 90.4805 204.88C90.4805 206.853 89.8405 208.374 88.5605 209.44C87.3339 210.454 85.5735 210.96 83.2803 210.96H73.2002V198.56H83.1201ZM82.1602 176.8C84.4002 176.8 86.1069 177.307 87.2803 178.32C88.5068 179.334 89.1201 180.8 89.1201 182.72C89.1201 184.64 88.5069 186.107 87.2803 187.12C86.1069 188.08 84.4001 188.56 82.1602 188.56H73.2002V176.8H82.1602ZM287.833 98.04C281.806 98.04 276.633 99.3199 272.312 101.88C268.046 104.387 264.766 107.854 262.473 112.28C260.179 116.707 259.033 121.8 259.033 127.56C259.033 133.266 260.099 138.253 262.232 142.52C264.366 146.786 267.3 150.094 271.033 152.44C274.766 154.787 278.98 155.96 283.673 155.96C286.18 155.96 288.499 155.613 290.633 154.92C292.819 154.227 294.739 153.213 296.393 151.88C298.046 150.493 299.406 148.84 300.473 146.92H300.793L301.753 155H314.393V123.32H288.633V133.4H300.713C300.18 136.28 298.819 138.76 296.633 140.84C294.499 142.867 291.352 143.88 287.192 143.88C284.153 143.88 281.566 143.267 279.433 142.04C277.299 140.813 275.673 139 274.553 136.6C273.486 134.146 272.953 131.159 272.953 127.64C272.953 124.173 273.486 121.186 274.553 118.68C275.673 116.12 277.326 114.146 279.513 112.76C281.699 111.373 284.446 110.68 287.753 110.68C290.473 110.68 292.686 111.187 294.393 112.2C296.153 113.16 297.459 114.574 298.312 116.44H313.433C312.099 110.68 309.193 106.173 304.713 102.92C300.286 99.6666 294.66 98.0401 287.833 98.04ZM75.8516 109.96H91.9316V155H105.611V109.96H121.691V99H75.8516V109.96ZM125.692 155H139.372V131.88H160.652V155H174.332V99H160.652V120.84H139.372V99H125.692V155ZM181.552 155H195.231V99H181.552V155ZM202.411 155H216.091V118.52H216.411L236.571 155H252.651V99H238.971V135.56H238.651L218.491 99H202.411V155ZM77.0986 32V88H115.498V77.04H90.7783V64.7197H113.099V54.1602H90.7783V42.96H115.498V32H77.0986ZM135.073 88H157.953L174.754 32H160.273L146.674 80H146.354L132.594 32H118.273L135.073 88ZM178.739 88H217.139V77.04H192.419V64.7197H214.739V54.1602H192.419V42.96H217.139V32H178.739V88ZM223.114 88H236.794V66.96H242.272L251.754 88H267.194L256.218 65.2988C256.781 65.0743 257.321 64.8297 257.834 64.5596C260.874 62.9063 263.114 60.7733 264.554 58.1602C265.994 55.4935 266.714 52.6664 266.714 49.6797C266.714 46.4265 265.941 43.4664 264.395 40.7998C262.901 38.1331 260.607 36.0004 257.514 34.4004C254.474 32.8005 250.661 32 246.074 32H223.114V88ZM286.54 69.4404V88H300.22V69.4404L319.58 32H304.22L293.66 56.2402H293.34L282.7 32H267.18L286.54 69.4404ZM245.274 43.3604C247.834 43.3604 249.727 44.0003 250.954 45.2803C252.181 46.5069 252.794 48.1603 252.794 50.2402C252.794 52.4268 252.181 54.1605 250.954 55.4404C249.727 56.6669 247.834 57.2802 245.274 57.2803H236.794V43.3604H245.274Z" fill="#E0EAE1"/>
</svg>
