<svg width="1440" height="684" viewBox="0 0 1440 684" fill="none" xmlns="http://www.w3.org/2000/svg">
<path d="M793.128 458.52C800.12 458.52 806.069 460.115 810.976 463.304C816.005 466.37 819.87 470.725 822.568 476.368C825.267 482.011 826.616 488.757 826.616 496.607C826.616 504.335 825.267 511.082 822.568 516.848C819.87 522.49 816.005 526.906 810.976 530.096C806.069 533.162 800.12 534.696 793.128 534.696C786.259 534.696 780.31 533.162 775.28 530.096C770.251 526.906 766.387 522.49 763.688 516.848C760.99 511.082 759.64 504.335 759.64 496.607C759.64 488.757 760.99 482.011 763.688 476.368C766.387 470.725 770.251 466.37 775.28 463.304C780.31 460.114 786.259 458.52 793.128 458.52Z" fill="#E0EAE1"/>
<path d="M422.229 502.128H391.631L406.649 448.952H407.385L422.229 502.128Z" fill="#E0EAE1"/>
<path d="M924.361 458.336C930.249 458.336 934.604 459.808 937.426 462.752C940.247 465.573 941.657 469.376 941.657 474.16C941.657 479.189 940.247 483.176 937.426 486.12C934.604 488.941 930.249 490.352 924.361 490.352H904.857V458.336H924.361Z" fill="#E0EAE1"/>
<path d="M203.893 352.096C209.167 352.096 213.277 353.384 216.221 355.96C219.287 358.413 220.82 361.971 220.82 366.632C220.82 371.17 219.348 374.667 216.404 377.12C213.583 379.451 209.535 380.616 204.261 380.616H181.076V352.096H203.893Z" fill="#E0EAE1"/>
<path d="M201.685 302.048C206.836 302.048 210.761 303.213 213.46 305.544C216.281 307.875 217.692 311.248 217.692 315.664C217.692 320.08 216.281 323.454 213.46 325.784C210.761 327.992 206.836 329.096 201.685 329.096H181.076V302.048H201.685Z" fill="#E0EAE1"/>
<path d="M551.33 148.336C557.218 148.336 561.573 149.808 564.395 152.752C567.216 155.573 568.626 159.376 568.626 164.16C568.626 169.189 567.216 173.176 564.395 176.12C561.573 178.941 557.218 180.352 551.33 180.352H531.826V148.336H551.33Z" fill="#E0EAE1"/>
<path fill-rule="evenodd" clip-rule="evenodd" d="M1439.94 684H-0.0625V0H1439.94V684ZM562.132 430C553.545 430 545.756 431.472 538.764 434.416C531.772 437.36 526.252 441.653 522.204 447.296C518.156 452.939 516.132 459.869 516.132 468.088C516.132 477.901 518.953 485.691 524.596 491.456C530.238 497.099 538.028 501.576 547.964 504.888C552.012 506.237 555.815 507.586 559.372 508.936C563.052 510.162 566.303 511.573 569.124 513.168C571.945 514.64 574.153 516.419 575.748 518.504C577.343 520.467 578.14 522.858 578.14 525.68C578.14 528.256 577.526 530.403 576.3 532.12C575.073 533.715 573.417 534.941 571.332 535.8C569.369 536.536 567.099 536.904 564.523 536.904C561.457 536.904 558.697 536.29 556.244 535.063C553.791 533.837 551.827 532.12 550.355 529.912C548.884 527.704 548.026 525.067 547.78 522H514.292C514.66 531.077 517.052 538.682 521.468 544.815C526.006 550.949 532.017 555.55 539.5 558.616C547.105 561.683 555.508 563.216 564.708 563.216C574.767 563.216 583.292 561.437 590.284 557.88C597.276 554.2 602.612 549.354 606.292 543.344C609.972 537.333 611.812 530.709 611.812 523.472C611.812 515.253 610.033 508.691 606.476 503.784C603.041 498.878 598.441 494.952 592.676 492.008C587.033 488.941 580.899 486.304 574.275 484.096C570.841 482.992 567.59 481.888 564.523 480.784C561.58 479.558 558.942 478.33 556.611 477.104C554.404 475.754 552.625 474.221 551.275 472.504C550.049 470.664 549.436 468.579 549.436 466.248C549.436 463.917 549.988 462.016 551.092 460.544C552.318 459.072 553.852 457.967 555.691 457.231C557.654 456.495 559.74 456.189 561.948 456.312C564.279 456.312 566.425 456.864 568.388 457.968C570.35 458.949 571.945 460.36 573.172 462.2C574.521 464.04 575.257 466.187 575.38 468.64H609.42C609.052 460.421 606.782 453.429 602.611 447.664C598.563 441.899 593.044 437.544 586.052 434.6C579.182 431.533 571.209 430 562.132 430ZM793.128 430C780.248 430 768.901 432.821 759.088 438.464C749.275 444.106 741.547 451.957 735.904 462.016C730.384 471.952 727.624 483.482 727.624 496.607C727.624 509.733 730.384 521.325 735.904 531.384C741.547 541.32 749.275 549.109 759.088 554.752C768.901 560.395 780.248 563.216 793.128 563.216C806.008 563.216 817.355 560.395 827.168 554.752C837.104 549.109 844.833 541.32 850.353 531.384C855.872 521.325 858.632 509.733 858.632 496.607C858.632 483.482 855.872 471.952 850.353 462.016C844.833 451.957 837.104 444.107 827.168 438.464C817.355 432.821 806.008 430 793.128 430ZM342.065 561.008H375.001L384.771 526.416H429.009L438.665 561.008H471.969L433.329 432.208H380.705L342.065 561.008ZM617.346 457.416H654.33V561.008H685.794V457.416H722.778V432.208H617.346V457.416ZM873.394 561.008H904.857V512.616H917.457L939.266 561.008H974.777L949.532 508.802C950.829 508.285 952.069 507.717 953.25 507.096C960.242 503.293 965.394 498.387 968.706 492.376C972.018 486.243 973.674 479.741 973.674 472.872C973.674 465.39 971.895 458.581 968.338 452.448C964.903 446.315 959.628 441.408 952.514 437.728C945.522 434.048 936.751 432.208 926.202 432.208H873.394V561.008ZM1019.27 518.32V561.008H1050.74V518.32L1095.26 432.208H1059.94L1035.65 487.96H1034.91L1010.44 432.208H974.745L1019.27 518.32ZM432.872 275C419.011 275 407.112 277.944 397.176 283.832C387.363 289.597 379.819 297.571 374.544 307.752C369.269 317.933 366.632 329.648 366.632 342.896C366.632 356.021 369.086 367.49 373.992 377.304C378.899 387.117 385.645 394.723 394.231 400.12C402.818 405.517 412.509 408.216 423.304 408.216C429.069 408.216 434.405 407.419 439.312 405.824C444.341 404.23 448.757 401.899 452.56 398.832C456.362 395.643 459.49 391.84 461.943 387.424H462.68L464.888 406.008H493.96V333.144H434.712V356.328H462.496C461.269 362.952 458.141 368.656 453.112 373.439C448.206 378.101 440.967 380.432 431.399 380.432C424.408 380.432 418.458 379.021 413.552 376.2C408.645 373.379 404.904 369.208 402.328 363.688C399.875 358.045 398.647 351.176 398.647 343.08C398.647 335.107 399.875 328.237 402.328 322.472C404.904 316.584 408.706 312.045 413.735 308.855C418.765 305.666 425.082 304.072 432.688 304.072C438.943 304.072 444.035 305.237 447.96 307.567C452.008 309.775 455.013 313.026 456.976 317.319H491.752C488.685 304.072 482 293.706 471.696 286.224C461.515 278.741 448.573 275 432.872 275ZM734.812 275C726.225 275 718.435 276.472 711.443 279.416C704.451 282.36 698.932 286.653 694.884 292.296C690.836 297.939 688.812 304.869 688.812 313.088C688.812 322.901 691.633 330.691 697.275 336.456C702.918 342.099 710.708 346.576 720.644 349.888C724.692 351.237 728.494 352.586 732.052 353.936C735.732 355.162 738.982 356.573 741.804 358.168C744.625 359.64 746.833 361.419 748.428 363.504C750.022 365.467 750.819 367.858 750.819 370.68C750.819 373.256 750.206 375.403 748.979 377.12C747.753 378.715 746.097 379.941 744.012 380.8C742.049 381.536 739.779 381.904 737.203 381.904C734.137 381.904 731.377 381.29 728.924 380.063C726.471 378.837 724.507 377.12 723.035 374.912C721.563 372.704 720.705 370.067 720.46 367H686.972C687.34 376.077 689.732 383.682 694.147 389.815C698.686 395.949 704.697 400.55 712.18 403.616C719.785 406.683 728.188 408.216 737.388 408.216C747.446 408.216 755.972 406.437 762.964 402.88C769.956 399.2 775.292 394.354 778.972 388.344C782.652 382.333 784.491 375.709 784.491 368.472C784.491 360.253 782.713 353.691 779.155 348.784C775.721 343.878 771.121 339.952 765.355 337.008C759.713 333.941 753.579 331.304 746.955 329.096C743.521 327.992 740.27 326.888 737.203 325.784C734.259 324.558 731.622 323.33 729.291 322.104C727.083 320.754 725.304 319.221 723.955 317.504C722.728 315.664 722.115 313.579 722.115 311.248C722.115 308.917 722.668 307.016 723.771 305.544C724.998 304.072 726.531 302.967 728.371 302.231C730.334 301.495 732.42 301.189 734.628 301.312C736.958 301.312 739.105 301.864 741.067 302.968C743.03 303.949 744.625 305.36 745.852 307.2C747.201 309.04 747.937 311.187 748.06 313.64H782.1C781.732 305.421 779.462 298.429 775.291 292.664C771.243 286.899 765.723 282.544 758.731 279.6C751.862 276.533 743.889 275 734.812 275ZM149.612 406.008H209.78C218.858 406.008 226.586 404.597 232.965 401.775C239.343 398.831 244.188 394.723 247.5 389.448C250.935 384.174 252.652 377.979 252.652 370.864C252.652 365.344 251.364 360.253 248.788 355.592C246.212 350.808 242.655 346.944 238.116 344C235.066 341.939 231.655 340.515 227.885 339.729C230.167 339.079 232.351 338.234 234.437 337.191C239.098 334.738 242.778 331.304 245.477 326.888C248.298 322.472 249.708 317.075 249.708 310.696C249.708 303.827 248.052 297.939 244.74 293.032C241.428 288.003 236.645 284.138 230.389 281.439C224.133 278.618 216.589 277.208 207.757 277.208H149.612V406.008ZM266.409 406.008H354.729V380.8H297.873V352.464H349.209V328.176H297.873V302.416H354.729V277.208H266.409V406.008ZM510.604 406.008H542.068V277.208H510.604V406.008ZM558.581 406.008H590.045V322.104H590.781L637.149 406.008H674.133V277.208H642.669V361.296H641.934L595.565 277.208H558.581V406.008ZM854.094 406.008H899.542L918.678 303.888H919.414L939.654 406.008H985.102L1011.41 277.208H977.558L961.733 387.424H960.998L939.286 277.208H899.542L879.67 387.424H878.75L860.534 277.208H826.862L854.094 406.008ZM1020.56 406.008H1052.02V277.208H1020.56V406.008ZM1061.17 302.416H1098.16V406.008H1129.62V302.416H1166.61V277.208H1061.17V302.416ZM1175.81 406.008H1207.27V352.832H1256.22V406.008H1287.68V277.208H1256.22V327.439H1207.27V277.208H1175.81V406.008ZM1211.64 120C1197.78 120 1185.88 122.944 1175.94 128.832C1166.13 134.597 1158.58 142.571 1153.31 152.752C1148.03 162.933 1145.4 174.648 1145.4 187.896C1145.4 201.021 1147.85 212.49 1152.76 222.304C1157.66 232.117 1164.41 239.723 1173 245.12C1181.58 250.517 1191.27 253.216 1202.07 253.216C1207.83 253.216 1213.17 252.419 1218.08 250.824C1223.11 249.23 1227.52 246.899 1231.33 243.832C1235.13 240.643 1238.26 236.84 1240.71 232.424H1241.45L1243.65 251.008H1272.73V178.144H1213.48V201.328H1241.26C1240.04 207.952 1236.91 213.656 1231.88 218.439C1226.97 223.101 1219.73 225.432 1210.17 225.432C1203.17 225.432 1197.22 224.021 1192.32 221.2C1187.41 218.379 1183.67 214.208 1181.09 208.688C1178.64 203.045 1177.41 196.176 1177.41 188.08C1177.41 180.107 1178.64 173.237 1181.09 167.472C1183.67 161.584 1187.47 157.045 1192.5 153.855C1197.53 150.666 1203.85 149.072 1211.45 149.072C1217.71 149.072 1222.8 150.237 1226.73 152.567C1230.77 154.775 1233.78 158.026 1235.74 162.319H1270.52C1267.45 149.072 1260.77 138.706 1250.46 131.224C1240.28 123.741 1227.34 120 1211.64 120ZM164.526 122.208V251.008H252.847V225.8H195.99V197.464H247.326V173.176H195.99V147.416H252.847V122.208H164.526ZM297.869 251.008H350.493L389.133 122.208H355.829L324.549 232.607H323.813L292.165 122.208H259.229L297.869 251.008ZM398.3 251.008H486.62V225.8H429.764V197.464H481.1V173.176H429.764V147.416H486.62V122.208H398.3V251.008ZM500.362 251.008H531.826V202.616H544.426L566.234 251.008H601.746L576.501 198.802C577.798 198.285 579.038 197.717 580.219 197.096C587.211 193.293 592.363 188.387 595.675 182.376C598.987 176.243 600.643 169.741 600.643 162.872C600.643 155.39 598.864 148.581 595.307 142.448C591.872 136.315 586.597 131.408 579.482 127.728C572.491 124.048 563.72 122.208 553.171 122.208H500.362V251.008ZM646.241 208.319V251.008H677.705V208.319L722.233 122.208H686.905L662.617 177.96H661.882L637.409 122.208H601.713L646.241 208.319ZM724.081 147.416H761.064V251.008H792.528V147.416H829.513V122.208H724.081V147.416ZM838.714 251.008H870.178V197.832H919.122V251.008H950.586V122.208H919.122V172.439H870.178V122.208H838.714V251.008ZM967.19 251.008H998.654V122.208H967.19V251.008ZM1015.17 251.008H1046.63V167.104H1047.37L1093.74 251.008H1130.72V122.208H1099.25V206.296H1098.52L1052.15 122.208H1015.17V251.008Z" fill="#E0EAE1"/>
</svg>
